<?xml version="1.0" encoding="UTF-8" standalone="no"?>
<!-- Generator: Adobe Illustrator 16.0.4, SVG Export Plug-In . SVG Version: 6.00 Build 0)  -->

<svg
   xmlns:dc="http://purl.org/dc/elements/1.1/"
   xmlns:cc="http://creativecommons.org/ns#"
   xmlns:rdf="http://www.w3.org/1999/02/22-rdf-syntax-ns#"
   xmlns:svg="http://www.w3.org/2000/svg"
   xmlns="http://www.w3.org/2000/svg"
   xmlns:sodipodi="http://sodipodi.sourceforge.net/DTD/sodipodi-0.dtd"
   xmlns:inkscape="http://www.inkscape.org/namespaces/inkscape"
   version="1.1"
   id="Warstwa_2"
   x="0px"
   y="0px"
   width="263px"
   height="176px"
   viewBox="0 0 263 176"
   enable-background="new 0 0 263 176"
   xml:space="preserve"
   inkscape:version="0.91 r13725"
   sodipodi:docname="arrow-keys-icon.svg"><metadata
     id="metadata4216"><rdf:RDF><cc:Work
         rdf:about=""><dc:format>image/svg+xml</dc:format><dc:type
           rdf:resource="http://purl.org/dc/dcmitype/StillImage" /><dc:title></dc:title></cc:Work></rdf:RDF></metadata><defs
     id="defs4214" /><sodipodi:namedview
     pagecolor="#ffffff"
     bordercolor="#666666"
     borderopacity="1"
     objecttolerance="10"
     gridtolerance="10"
     guidetolerance="10"
     inkscape:pageopacity="0"
     inkscape:pageshadow="2"
     inkscape:window-width="1593"
     inkscape:window-height="877"
     id="namedview4212"
     showgrid="false"
     inkscape:zoom="2.4638783"
     inkscape:cx="166.40432"
     inkscape:cy="123.71605"
     inkscape:window-x="0"
     inkscape:window-y="0"
     inkscape:window-maximized="0"
     inkscape:current-layer="g4198" /><g
     id="g4186"
     transform="matrix(1.0533988,0,0,1.0533988,-4.4470114,-0.17990054)"><path
       stroke-miterlimit="10"
       d="m 169.826,72.408 c 0,3.279 -2.658,5.937 -5.937,5.937 l -22.023,0 c -3.278,0 -5.936,-2.658 -5.936,-5.937 l 0,-22.023 c 0,-3.279 2.657,-5.937 5.936,-5.937 l 22.023,0 c 3.278,0 5.937,2.658 5.937,5.937 l 0,22.023 z"
       id="path4188"
       inkscape:connector-curvature="0"
       style="fill:none;stroke:#000000;stroke-miterlimit:10" /><polygon
       stroke-miterlimit="10"
       points="158.951,68.415 158.951,54.378 146.807,61.397 "
       id="polygon4190"
       style="stroke:none;stroke-miterlimit:10" /></g><g
     id="g4192"
     transform="matrix(1.0533988,0,0,1.0533988,-4.4470114,-0.17990054)"><path
       stroke-miterlimit="10"
       d="m 209.91,72.408 c 0,3.279 -2.658,5.937 -5.938,5.937 l -22.023,0 c -3.277,0 -5.936,-2.658 -5.936,-5.937 l 0,-22.023 c 0,-3.279 2.658,-5.937 5.936,-5.937 l 22.023,0 c 3.279,0 5.938,2.658 5.938,5.937 l 0,22.023 z"
       id="path4194"
       inkscape:connector-curvature="0"
       style="fill:none;stroke:#000000;stroke-miterlimit:10" /><polygon
       stroke-miterlimit="10"
       points="199.98,55.325 185.943,55.325 192.962,67.469 "
       id="polygon4196"
       style="stroke:none;stroke-miterlimit:10" /></g><g
     id="g4198"
     transform="matrix(1.0533988,0,0,1.0533988,-4.4470114,-0.17990054)"><path
       stroke-miterlimit="10"
       d="m 249.993,72.408 c 0,3.279 -2.658,5.938 -5.938,5.938 l -22.022,0 c -3.278,0 -5.937,-2.659 -5.937,-5.938 l 0,-22.023 c 0,-3.28 2.658,-5.938 5.937,-5.938 l 22.022,0 c 3.279,0 5.938,2.658 5.938,5.938 l 0,22.023 z"
       id="path4200"
       inkscape:connector-curvature="0"
       style="fill:none;stroke:#000000;stroke-miterlimit:10" /><polygon
       stroke-miterlimit="10"
       points="226.973,54.378 226.973,68.415 239.117,61.396 "
       id="polygon4202"
       style="stroke:none;stroke-miterlimit:10" /></g><path
     stroke-miterlimit="10"
     d="m 132.90776,76.094599 c 0,3.454095 -2.80098,6.254029 -6.25508,6.254029 l -116.657594,0 c -3.4540951,0 -6.2540286,-2.799934 -6.2540286,-6.254029 l 0,-23.199001 c 0,-3.454095 2.7999335,-6.254029 6.2540286,-6.254029 l 116.657594,0 c 3.4541,0 6.25508,2.799934 6.25508,6.254029 l 0,23.199001 z"
     id="path4204"
     inkscape:connector-curvature="0"
     style="fill:none;stroke:#000000;stroke-width:1.05339885;stroke-miterlimit:10" /><g
     id="g4206"
     transform="matrix(1.0533988,0,0,1.0533988,-4.4470114,-0.17990054)"><path
       stroke-miterlimit="10"
       d="m 209.91,31.829 c 0,3.279 -2.659,5.937 -5.938,5.937 l -22.023,0 c -3.277,0 -5.936,-2.658 -5.936,-5.937 l 0,-22.023 c 0,-3.279 2.658,-5.937 5.936,-5.937 l 22.023,0 c 3.278,0 5.938,2.658 5.938,5.937 l 0,22.023 z"
       id="path4208"
       inkscape:connector-curvature="0"
       style="fill:none;stroke:#000000;stroke-miterlimit:10" /><polygon
       stroke-miterlimit="10"
       points="185.943,26.889 199.979,26.889 192.962,14.745 "
       id="polygon4210"
       style="stroke:none;stroke-miterlimit:10" /></g></svg>